# xmcd
#
# Track frame offsets:
#	150
#	6415
#	25733
#	42636
#	57999
#	79248
#	94968
#	124747
#	154604
#	179951
#	208469
#
# Disc length: 3237 seconds
#
# Revision: 1
# Processed by: cddbd v1.5.1PL2 Copyright (c) Steve Scherf et al.
# Submitted via: EasyCDDAExtractor 9.0.0.1
#
DISCID=a10ca30b
DTITLE=Saxon - Colos-Saal Aschaffenburg 12-12-05 Disc 1
DYEAR=2005
DGENRE=Hard Rock
TTITLE0=Intro
TTITLE1=Motorcycle Man
TTITLE2=Never Surrender
TTITLE3=Back To The Wall
TTITLE4=Strong Arm Of The Law
TTITLE5=Stallions Of The Highway
TTITLE6=Power And The Glory
TTITLE7=Frozen Rainbow
TTITLE8=Suzie Hold On
TTITLE9=Crusader
TTITLE10=The Eagle Has Landed
EXTD=
EXTT0=
EXTT1=
EXTT2=
EXTT3=
EXTT4=
EXTT5=
EXTT6=
EXTT7=
EXTT8=
EXTT9=
EXTT10=
PLAYORDER=
